<svg version="1.2" baseProfile="tiny" xmlns="http://www.w3.org/2000/svg" width="108" height="16"><linearGradient id="a" gradientUnits="userSpaceOnUse" x1="8" y1="8" x2="8"><stop offset="0" stop-color="#fa5e5a"/><stop offset="1" stop-color="#f80"/></linearGradient><path fill="url(#a)" d="M8 0a8 8 0 0 0-8 8h16a8 8 0 0 0-8-8z"/><path fill="#CF5278" d="M.085 9c.072.574.185 1.137.372 1.667h15.086c.188-.53.3-1.093.372-1.667H.085zM8 16a7.954 7.954 0 0 0 4.874-1.666H3.126A7.952 7.952 0 0 0 8 16zm-5.961-2.667h11.922c.446-.498.806-1.067 1.116-1.666H.922c.311.599.671 1.168 1.117 1.666z"/><g><g fill="#CF5278"><path d="M85.852 3.757h1.127v8.612h-1.307l-4.378-6.957h-.024v6.957h-1.127V3.757h1.379l4.306 6.956h.024V3.757zM92.561 12.596c-3.215 0-4.197-2.674-4.197-4.533 0-1.859.982-4.533 4.197-4.533s4.197 2.674 4.197 4.533c0 1.859-.983 4.533-4.197 4.533zm0-8.035c-1.871 0-2.998 1.476-2.998 3.502 0 2.027 1.127 3.501 2.998 3.501s2.998-1.475 2.998-3.501-1.127-3.502-2.998-3.502zM100.529 12.369h-1.225l-2.242-8.612h1.26l1.607 7.004h.023l1.932-7.004h1.27l1.932 7.004h.023l1.607-7.004H108l-2.266 8.612h-1.225l-1.967-7.136h-.023l-1.99 7.136z"/></g><g fill="#B2B2B2"><path d="M24.29 12.306h-1.224l-2.243-8.611h1.259l1.607 7.004h.024l1.931-7.004h1.271l1.931 7.004h.024l1.607-7.004h1.283l-2.267 8.611h-1.224L26.305 5.17h-.024l-1.991 7.136zM39.348 12.306h-6.357V3.694h6.273v1.031h-5.109v2.639h4.713v1.031h-4.713v2.879h5.193v1.032zM42.23 9.799l-.899 2.507h-1.199l3.238-8.611h1.319l3.118 8.611h-1.271l-.852-2.507H42.23zm3.035-1.031l-1.271-3.79h-.024l-1.379 3.79h2.674zM46.695 3.694h6.992v1.031h-2.915v7.58H49.61v-7.58h-2.915V3.694zM60.443 3.694h1.164v8.611h-1.164V8.288h-4.497v4.018h-1.164V3.694h1.164v3.563h4.497V3.694zM69.911 12.306h-6.356V3.694h6.272v1.031h-5.109v2.639h4.715v1.031h-4.715v2.879h5.193v1.032zM72.747 12.306h-1.164V3.694h3.982c1.414 0 2.83.492 2.83 2.314 0 1.271-.648 1.739-1.199 2.063.492.204.982.42 1.031 1.619l.073 1.56c.012.479.072.66.432.864v.191h-1.428c-.168-.527-.203-1.835-.203-2.159 0-.707-.145-1.535-1.535-1.535h-2.818v3.695zm0-4.69h2.697c.852 0 1.752-.216 1.752-1.487 0-1.331-.971-1.439-1.547-1.439h-2.902v2.926z"/></g></g></svg>